<svg width="80" height="80" viewBox="0 0 80 80" fill="none" xmlns="http://www.w3.org/2000/svg">
<g opacity="0.3">
<path d="M80 40C80 62.0914 62.0914 80 40 80C17.9086 80 0 62.0914 0 40C0 17.9086 17.9086 0 40 0C62.0914 0 80 17.9086 80 40Z" fill="#D0D0D0"/>
<path fill-rule="evenodd" clip-rule="evenodd" d="M45.0379 31.2273C45.0379 33.4113 43.0053 35.1818 40.4977 35.1818C37.9904 35.1818 35.9576 33.4113 35.9576 31.2273C35.9576 29.0432 37.9904 27.2727 40.4977 27.2727C43.0053 27.2727 45.0379 29.0432 45.0379 31.2273ZM42.0111 31.2273C42.0111 31.9553 41.3336 32.5454 40.4977 32.5454C39.6619 32.5454 38.9843 31.9553 38.9843 31.2273C38.9843 30.4993 39.6619 29.9091 40.4977 29.9091C41.3336 29.9091 42.0111 30.4993 42.0111 31.2273Z" fill="black"/>
<path fill-rule="evenodd" clip-rule="evenodd" d="M42.3759 44.2111C45.4193 41.6118 51.0915 36.1117 51.0915 31.2273C51.0915 26.0995 46.3485 22 40.4977 22C34.647 22 29.904 26.0995 29.904 31.2273C29.904 36.1117 35.5763 41.6118 38.6196 44.2111C39.6769 45.1142 41.3186 45.1142 42.3759 44.2111ZM45.3696 37.0966C47.0654 34.918 48.0647 32.866 48.0647 31.2273C48.0647 27.5615 44.6836 24.6364 40.4977 24.6364C36.3119 24.6364 32.9308 27.5615 32.9308 31.2273C32.9308 32.866 33.93 34.918 35.6258 37.0966C37.1772 39.0897 39.0708 40.8852 40.4977 42.1214C41.9247 40.8852 43.8183 39.0897 45.3696 37.0966Z" fill="black"/>
<path d="M31.2484 40.8815C30.5448 40.2686 29.3652 40.4039 28.8677 41.1545L24.3075 48.0341C23.4338 49.3523 24.526 51 26.2735 51H54.7265C56.474 51 57.5662 49.3523 56.6925 48.0341L52.1307 41.152C51.6331 40.4014 50.4536 40.2662 49.7498 40.879C49.2656 41.3008 49.1669 41.9535 49.5094 42.4702L53.4159 48.3636H27.5841L31.4889 42.4727C31.8314 41.956 31.7328 41.3033 31.2484 40.8815Z" fill="black"/>
</g>
</svg>
