<svg width="722" height="200" viewBox="0 0 722 200" fill="none" xmlns="http://www.w3.org/2000/svg">
<g clip-path="url(#clip0_236_365)">
<path d="M70.2545 165H716.596" stroke="black"/>
<path d="M70.2545 171V165" stroke="black"/>
<path d="M70.2545 183.119C69.6125 183.119 69.0656 182.945 68.6139 182.595C68.1622 182.243 67.817 181.733 67.5784 181.065C67.3397 180.395 67.2204 179.585 67.2204 178.636C67.2204 177.693 67.3397 176.888 67.5784 176.22C67.8198 175.55 68.1664 175.038 68.6181 174.686C69.0727 174.331 69.6181 174.153 70.2545 174.153C70.8909 174.153 71.4349 174.331 71.8866 174.686C72.3412 175.038 72.6877 175.55 72.9264 176.22C73.1679 176.888 73.2886 177.693 73.2886 178.636C73.2886 179.585 73.1693 180.395 72.9306 181.065C72.692 181.733 72.3468 182.243 71.8951 182.595C71.4434 182.945 70.8966 183.119 70.2545 183.119ZM70.2545 182.182C70.8909 182.182 71.3852 181.875 71.7375 181.261C72.0897 180.648 72.2659 179.773 72.2659 178.636C72.2659 177.881 72.1849 177.237 72.023 176.706C71.8639 176.175 71.6338 175.77 71.3326 175.491C71.0343 175.213 70.675 175.074 70.2545 175.074C69.6238 175.074 69.1309 175.385 68.7758 176.007C68.4207 176.626 68.2431 177.503 68.2431 178.636C68.2431 179.392 68.3227 180.034 68.4818 180.562C68.6409 181.091 68.8696 181.493 69.1679 181.768C69.469 182.044 69.8312 182.182 70.2545 182.182Z" fill="black"/>
<path d="M142.07 171V165" stroke="black"/>
<path d="M143.253 174.273V183H142.196V175.381H142.145L140.014 176.795V175.722L142.196 174.273H143.253Z" fill="black"/>
<path d="M213.886 171V165" stroke="black"/>
<path d="M211.157 183V182.233L214.037 179.08C214.375 178.71 214.654 178.389 214.872 178.116C215.091 177.841 215.253 177.582 215.358 177.341C215.466 177.097 215.52 176.841 215.52 176.574C215.52 176.267 215.446 176.001 215.299 175.777C215.154 175.553 214.955 175.379 214.702 175.257C214.449 175.135 214.165 175.074 213.85 175.074C213.514 175.074 213.222 175.143 212.972 175.283C212.725 175.419 212.533 175.611 212.397 175.858C212.263 176.105 212.196 176.395 212.196 176.727H211.191C211.191 176.216 211.308 175.767 211.544 175.381C211.78 174.994 212.101 174.693 212.507 174.477C212.916 174.261 213.375 174.153 213.884 174.153C214.395 174.153 214.848 174.261 215.243 174.477C215.638 174.693 215.948 174.984 216.172 175.351C216.397 175.717 216.509 176.125 216.509 176.574C216.509 176.895 216.451 177.209 216.334 177.516C216.22 177.82 216.022 178.159 215.737 178.534C215.456 178.906 215.066 179.361 214.566 179.898L212.605 181.994V182.062H216.662V183H211.157Z" fill="black"/>
<path d="M285.702 171V165" stroke="black"/>
<path d="M285.734 183.119C285.171 183.119 284.67 183.023 284.229 182.83C283.792 182.636 283.444 182.368 283.185 182.024C282.93 181.678 282.79 181.276 282.768 180.818H283.842C283.864 181.099 283.961 181.342 284.131 181.547C284.302 181.749 284.525 181.905 284.8 182.016C285.076 182.126 285.381 182.182 285.717 182.182C286.092 182.182 286.424 182.116 286.714 181.986C287.003 181.855 287.231 181.673 287.395 181.44C287.56 181.207 287.643 180.938 287.643 180.631C287.643 180.31 287.563 180.027 287.404 179.783C287.245 179.536 287.012 179.342 286.705 179.203C286.398 179.064 286.023 178.994 285.58 178.994H284.881V178.057H285.58C285.927 178.057 286.231 177.994 286.492 177.869C286.756 177.744 286.962 177.568 287.11 177.341C287.261 177.114 287.336 176.847 287.336 176.54C287.336 176.244 287.27 175.987 287.14 175.768C287.009 175.55 286.824 175.379 286.586 175.257C286.35 175.135 286.072 175.074 285.751 175.074C285.449 175.074 285.165 175.129 284.898 175.24C284.634 175.348 284.418 175.506 284.251 175.713C284.083 175.918 283.992 176.165 283.978 176.455H282.955C282.972 175.997 283.11 175.597 283.368 175.253C283.627 174.906 283.965 174.636 284.383 174.443C284.803 174.25 285.265 174.153 285.768 174.153C286.307 174.153 286.77 174.263 287.157 174.482C287.543 174.697 287.84 174.983 288.047 175.338C288.255 175.693 288.359 176.077 288.359 176.489C288.359 176.98 288.229 177.399 287.971 177.746C287.715 178.092 287.367 178.332 286.927 178.466V178.534C287.478 178.625 287.908 178.859 288.218 179.237C288.528 179.612 288.682 180.077 288.682 180.631C288.682 181.105 288.553 181.531 288.295 181.909C288.039 182.284 287.69 182.58 287.246 182.795C286.803 183.011 286.299 183.119 285.734 183.119Z" fill="black"/>
<path d="M357.517 171V165" stroke="black"/>
<path d="M354.367 181.21V180.341L358.202 174.273H358.832V175.619H358.406L355.509 180.205V180.273H360.673V181.21H354.367ZM358.475 183V180.946V180.541V174.273H359.48V183H358.475Z" fill="black"/>
<path d="M429.333 171V165" stroke="black"/>
<path d="M429.313 183.119C428.813 183.119 428.363 183.02 427.962 182.821C427.562 182.622 427.241 182.349 426.999 182.003C426.758 181.656 426.626 181.261 426.603 180.818H427.626C427.666 181.213 427.845 181.54 428.163 181.798C428.484 182.054 428.867 182.182 429.313 182.182C429.671 182.182 429.989 182.098 430.268 181.93C430.549 181.763 430.769 181.533 430.928 181.24C431.09 180.945 431.171 180.611 431.171 180.239C431.171 179.858 431.087 179.518 430.92 179.22C430.755 178.919 430.528 178.682 430.238 178.509C429.948 178.335 429.617 178.247 429.245 178.244C428.978 178.241 428.704 178.283 428.423 178.368C428.141 178.45 427.91 178.557 427.728 178.688L426.739 178.568L427.268 174.273H431.802V175.21H428.154L427.847 177.784H427.899C428.077 177.642 428.302 177.524 428.572 177.43C428.842 177.337 429.123 177.29 429.416 177.29C429.95 177.29 430.426 177.418 430.843 177.673C431.264 177.926 431.593 178.273 431.832 178.713C432.073 179.153 432.194 179.656 432.194 180.222C432.194 180.778 432.069 181.276 431.819 181.713C431.572 182.148 431.231 182.491 430.796 182.744C430.362 182.994 429.867 183.119 429.313 183.119Z" fill="black"/>
<path d="M501.149 171V165" stroke="black"/>
<path d="M501.206 183.119C500.848 183.114 500.49 183.045 500.132 182.915C499.774 182.784 499.447 182.564 499.152 182.254C498.856 181.942 498.619 181.52 498.44 180.989C498.261 180.455 498.172 179.784 498.172 178.977C498.172 178.205 498.244 177.52 498.389 176.923C498.534 176.324 498.744 175.82 499.02 175.411C499.295 174.999 499.628 174.686 500.017 174.473C500.409 174.26 500.851 174.153 501.342 174.153C501.831 174.153 502.265 174.251 502.646 174.447C503.03 174.641 503.342 174.911 503.584 175.257C503.825 175.604 503.981 176.003 504.052 176.455H503.012C502.916 176.062 502.728 175.737 502.45 175.479C502.172 175.22 501.802 175.091 501.342 175.091C500.666 175.091 500.133 175.385 499.744 175.973C499.358 176.561 499.163 177.386 499.16 178.449H499.228C499.387 178.207 499.576 178.001 499.795 177.831C500.017 177.658 500.261 177.524 500.528 177.43C500.795 177.337 501.078 177.29 501.376 177.29C501.876 177.29 502.334 177.415 502.748 177.665C503.163 177.912 503.495 178.254 503.745 178.692C503.995 179.126 504.12 179.625 504.12 180.188C504.12 180.727 504 181.222 503.758 181.67C503.517 182.116 503.177 182.472 502.74 182.736C502.305 182.997 501.794 183.125 501.206 183.119ZM501.206 182.182C501.564 182.182 501.885 182.092 502.169 181.913C502.456 181.734 502.682 181.494 502.846 181.193C503.014 180.892 503.098 180.557 503.098 180.188C503.098 179.827 503.017 179.499 502.855 179.203C502.696 178.905 502.476 178.668 502.194 178.491C501.916 178.315 501.598 178.227 501.24 178.227C500.97 178.227 500.718 178.281 500.485 178.389C500.253 178.494 500.048 178.639 499.872 178.824C499.699 179.009 499.562 179.22 499.463 179.459C499.363 179.695 499.314 179.943 499.314 180.205C499.314 180.551 499.395 180.875 499.557 181.176C499.721 181.477 499.946 181.72 500.23 181.905C500.517 182.089 500.842 182.182 501.206 182.182Z" fill="black"/>
<path d="M572.964 171V165" stroke="black"/>
<path d="M571.253 183L575.157 175.278V175.21H570.657V174.273H576.248V175.261L572.361 183H571.253Z" fill="black"/>
<path d="M644.78 171V165" stroke="black"/>
<path d="M644.782 183.119C644.196 183.119 643.679 183.016 643.231 182.808C642.785 182.598 642.437 182.31 642.187 181.943C641.937 181.574 641.813 181.153 641.816 180.682C641.813 180.312 641.885 179.972 642.033 179.659C642.181 179.344 642.383 179.081 642.638 178.871C642.897 178.658 643.185 178.523 643.503 178.466V178.415C643.086 178.307 642.753 178.072 642.506 177.712C642.259 177.348 642.137 176.935 642.14 176.472C642.137 176.028 642.249 175.632 642.476 175.283C642.704 174.933 643.016 174.658 643.414 174.456C643.814 174.254 644.27 174.153 644.782 174.153C645.287 174.153 645.739 174.254 646.137 174.456C646.535 174.658 646.847 174.933 647.074 175.283C647.304 175.632 647.421 176.028 647.424 176.472C647.421 176.935 647.294 177.348 647.044 177.712C646.797 178.072 646.469 178.307 646.06 178.415V178.466C646.375 178.523 646.66 178.658 646.912 178.871C647.165 179.081 647.367 179.344 647.517 179.659C647.668 179.972 647.745 180.312 647.748 180.682C647.745 181.153 647.617 181.574 647.364 181.943C647.114 182.31 646.766 182.598 646.32 182.808C645.877 183.016 645.364 183.119 644.782 183.119ZM644.782 182.182C645.177 182.182 645.517 182.118 645.804 181.99C646.091 181.862 646.313 181.682 646.469 181.449C646.625 181.216 646.705 180.943 646.708 180.631C646.705 180.301 646.62 180.01 646.452 179.757C646.285 179.504 646.056 179.305 645.766 179.161C645.479 179.016 645.151 178.943 644.782 178.943C644.41 178.943 644.077 179.016 643.785 179.161C643.495 179.305 643.266 179.504 643.098 179.757C642.934 180.01 642.853 180.301 642.856 180.631C642.853 180.943 642.928 181.216 643.081 181.449C643.238 181.682 643.461 181.862 643.75 181.99C644.04 182.118 644.384 182.182 644.782 182.182ZM644.782 178.04C645.094 178.04 645.371 177.977 645.613 177.852C645.857 177.727 646.049 177.553 646.188 177.328C646.327 177.104 646.398 176.841 646.401 176.54C646.398 176.244 646.329 175.987 646.192 175.768C646.056 175.547 645.867 175.376 645.625 175.257C645.384 175.135 645.103 175.074 644.782 175.074C644.455 175.074 644.169 175.135 643.925 175.257C643.681 175.376 643.492 175.547 643.358 175.768C643.225 175.987 643.16 176.244 643.162 176.54C643.16 176.841 643.226 177.104 643.363 177.328C643.502 177.553 643.694 177.727 643.938 177.852C644.182 177.977 644.463 178.04 644.782 178.04Z" fill="black"/>
<path d="M716.596 171V165" stroke="black"/>
<path d="M716.533 174.153C716.891 174.156 717.249 174.224 717.607 174.358C717.965 174.491 718.292 174.713 718.587 175.023C718.883 175.33 719.12 175.749 719.299 176.28C719.478 176.811 719.568 177.477 719.568 178.278C719.568 179.054 719.494 179.743 719.346 180.345C719.201 180.945 718.991 181.45 718.715 181.862C718.443 182.274 718.11 182.587 717.718 182.8C717.329 183.013 716.889 183.119 716.397 183.119C715.908 183.119 715.472 183.023 715.089 182.83C714.708 182.634 714.396 182.362 714.151 182.016C713.91 181.666 713.755 181.261 713.687 180.801H714.727C714.82 181.202 715.007 181.533 715.285 181.794C715.566 182.053 715.937 182.182 716.397 182.182C717.07 182.182 717.602 181.888 717.991 181.3C718.383 180.712 718.579 179.881 718.579 178.807H718.511C718.352 179.045 718.163 179.251 717.944 179.425C717.725 179.598 717.482 179.732 717.215 179.825C716.948 179.919 716.664 179.966 716.363 179.966C715.863 179.966 715.404 179.842 714.987 179.595C714.572 179.345 714.239 179.003 713.989 178.568C713.742 178.131 713.619 177.631 713.619 177.068C713.619 176.534 713.738 176.045 713.977 175.602C714.218 175.156 714.556 174.801 714.991 174.537C715.428 174.273 715.943 174.145 716.533 174.153ZM716.533 175.091C716.176 175.091 715.853 175.18 715.566 175.359C715.282 175.536 715.056 175.774 714.889 176.075C714.724 176.374 714.641 176.705 714.641 177.068C714.641 177.432 714.721 177.763 714.88 178.061C715.042 178.357 715.262 178.592 715.541 178.768C715.822 178.942 716.141 179.028 716.499 179.028C716.769 179.028 717.021 178.976 717.254 178.871C717.487 178.763 717.69 178.616 717.863 178.432C718.039 178.244 718.177 178.033 718.276 177.797C718.376 177.558 718.426 177.31 718.426 177.051C718.426 176.71 718.343 176.391 718.178 176.092C718.016 175.794 717.792 175.553 717.505 175.368C717.221 175.183 716.897 175.091 716.533 175.091Z" fill="black"/>
<path d="M70.2545 5V165" stroke="black"/>
<path d="M63.7695 165H70.2545" stroke="black"/>
<path d="M54.6153 165.119C53.9732 165.119 53.4264 164.945 52.9746 164.595C52.5229 164.243 52.1778 163.733 51.9391 163.065C51.7005 162.395 51.5812 161.585 51.5812 160.636C51.5812 159.693 51.7005 158.888 51.9391 158.22C52.1806 157.55 52.5272 157.038 52.9789 156.686C53.4335 156.331 53.9789 156.153 54.6153 156.153C55.2516 156.153 55.7957 156.331 56.2474 156.686C56.7019 157.038 57.0485 157.55 57.2871 158.22C57.5286 158.888 57.6494 159.693 57.6494 160.636C57.6494 161.585 57.53 162.395 57.2914 163.065C57.0528 163.733 56.7076 164.243 56.2559 164.595C55.8042 164.945 55.2573 165.119 54.6153 165.119ZM54.6153 164.182C55.2516 164.182 55.746 163.875 56.0982 163.261C56.4505 162.648 56.6266 161.773 56.6266 160.636C56.6266 159.881 56.5457 159.237 56.3837 158.706C56.2246 158.175 55.9945 157.77 55.6934 157.491C55.3951 157.213 55.0357 157.074 54.6153 157.074C53.9846 157.074 53.4917 157.385 53.1366 158.007C52.7815 158.626 52.6039 159.503 52.6039 160.636C52.6039 161.392 52.6835 162.034 52.8425 162.562C53.0016 163.091 53.2303 163.493 53.5286 163.768C53.8298 164.044 54.192 164.182 54.6153 164.182Z" fill="black"/>
<path d="M63.7695 125H70.2545" stroke="black"/>
<path d="M37.2023 125V124.233L40.0829 121.08C40.421 120.71 40.6994 120.389 40.9182 120.116C41.1369 119.841 41.2989 119.582 41.404 119.341C41.5119 119.097 41.5659 118.841 41.5659 118.574C41.5659 118.267 41.492 118.001 41.3443 117.777C41.1994 117.553 41.0006 117.379 40.7477 117.257C40.4949 117.135 40.2108 117.074 39.8954 117.074C39.5602 117.074 39.2676 117.143 39.0176 117.283C38.7704 117.419 38.5787 117.611 38.4423 117.858C38.3088 118.105 38.242 118.395 38.242 118.727H37.2364C37.2364 118.216 37.3543 117.767 37.59 117.381C37.8258 116.994 38.1469 116.693 38.5531 116.477C38.9622 116.261 39.421 116.153 39.9295 116.153C40.4409 116.153 40.894 116.261 41.2889 116.477C41.6838 116.693 41.9935 116.984 42.2179 117.351C42.4423 117.717 42.5545 118.125 42.5545 118.574C42.5545 118.895 42.4963 119.209 42.3798 119.516C42.2662 119.82 42.0673 120.159 41.7832 120.534C41.502 120.906 41.1114 121.361 40.6114 121.898L38.6511 123.994V124.062H42.7079V125H37.2023ZM47.1952 125.119C46.6952 125.119 46.2449 125.02 45.8443 124.821C45.4437 124.622 45.1227 124.349 44.8812 124.003C44.6398 123.656 44.5077 123.261 44.4849 122.818H45.5077C45.5474 123.213 45.7264 123.54 46.0446 123.798C46.3656 124.054 46.7491 124.182 47.1952 124.182C47.5531 124.182 47.8713 124.098 48.1497 123.93C48.431 123.763 48.6511 123.533 48.8102 123.24C48.9722 122.945 49.0531 122.611 49.0531 122.239C49.0531 121.858 48.9693 121.518 48.8017 121.22C48.6369 120.919 48.4097 120.682 48.1199 120.509C47.8301 120.335 47.4991 120.247 47.127 120.244C46.8599 120.241 46.5858 120.283 46.3045 120.368C46.0233 120.45 45.7918 120.557 45.6099 120.688L44.6213 120.568L45.1497 116.273H49.6838V117.21H46.0361L45.7293 119.784H45.7804C45.9594 119.642 46.1838 119.524 46.4537 119.43C46.7236 119.337 47.0048 119.29 47.2974 119.29C47.8315 119.29 48.3074 119.418 48.725 119.673C49.1454 119.926 49.475 120.273 49.7136 120.713C49.9551 121.153 50.0758 121.656 50.0758 122.222C50.0758 122.778 49.9508 123.276 49.7008 123.713C49.4537 124.148 49.1128 124.491 48.6781 124.744C48.2435 124.994 47.7491 125.119 47.1952 125.119ZM54.6153 125.119C53.9732 125.119 53.4263 124.945 52.9746 124.595C52.5229 124.243 52.1778 123.733 51.9391 123.065C51.7005 122.395 51.5812 121.585 51.5812 120.636C51.5812 119.693 51.7005 118.888 51.9391 118.22C52.1806 117.55 52.5272 117.038 52.9789 116.686C53.4334 116.331 53.9789 116.153 54.6153 116.153C55.2516 116.153 55.7957 116.331 56.2474 116.686C56.7019 117.038 57.0485 117.55 57.2871 118.22C57.5286 118.888 57.6494 119.693 57.6494 120.636C57.6494 121.585 57.53 122.395 57.2914 123.065C57.0528 123.733 56.7076 124.243 56.2559 124.595C55.8042 124.945 55.2573 125.119 54.6153 125.119ZM54.6153 124.182C55.2516 124.182 55.7459 123.875 56.0982 123.261C56.4505 122.648 56.6266 121.773 56.6266 120.636C56.6266 119.881 56.5457 119.237 56.3837 118.706C56.2246 118.175 55.9945 117.77 55.6934 117.491C55.3951 117.213 55.0357 117.074 54.6153 117.074C53.9846 117.074 53.4917 117.385 53.1366 118.007C52.7815 118.626 52.6039 119.503 52.6039 120.636C52.6039 121.392 52.6834 122.034 52.8425 122.562C53.0016 123.091 53.2303 123.493 53.5286 123.768C53.8298 124.044 54.192 124.182 54.6153 124.182Z" fill="black"/>
<path d="M63.7695 85H70.2545" stroke="black"/>
<path d="M39.6952 85.1193C39.1952 85.1193 38.7449 85.0199 38.3443 84.821C37.9437 84.6222 37.6227 84.3494 37.3812 84.0028C37.1398 83.6562 37.0077 83.2614 36.9849 82.8182H38.0077C38.0474 83.2131 38.2264 83.5398 38.5446 83.7983C38.8656 84.054 39.2491 84.1818 39.6952 84.1818C40.0531 84.1818 40.3713 84.098 40.6497 83.9304C40.931 83.7628 41.1511 83.5327 41.3102 83.2401C41.4722 82.9446 41.5531 82.6108 41.5531 82.2386C41.5531 81.858 41.4693 81.5185 41.3017 81.2202C41.1369 80.919 40.9097 80.6818 40.6199 80.5085C40.3301 80.3352 39.9991 80.2472 39.627 80.2443C39.3599 80.2415 39.0858 80.2827 38.8045 80.3679C38.5233 80.4503 38.2918 80.5568 38.1099 80.6875L37.1213 80.5682L37.6497 76.2727H42.1838V77.2102H38.5361L38.2293 79.7841H38.2804C38.4594 79.642 38.6838 79.5241 38.9537 79.4304C39.2236 79.3366 39.5048 79.2898 39.7974 79.2898C40.3315 79.2898 40.8074 79.4176 41.225 79.6733C41.6454 79.9261 41.975 80.2727 42.2136 80.7131C42.4551 81.1534 42.5758 81.6562 42.5758 82.2216C42.5758 82.7784 42.4508 83.2756 42.2008 83.7131C41.9537 84.1477 41.6128 84.4915 41.1781 84.7443C40.7435 84.9943 40.2491 85.1193 39.6952 85.1193ZM47.1153 85.1193C46.4732 85.1193 45.9263 84.9446 45.4746 84.5952C45.0229 84.2429 44.6778 83.733 44.4391 83.0653C44.2005 82.3949 44.0812 81.5852 44.0812 80.6364C44.0812 79.6932 44.2005 78.8878 44.4391 78.2202C44.6806 77.5497 45.0272 77.0384 45.4789 76.6861C45.9334 76.331 46.4789 76.1534 47.1153 76.1534C47.7516 76.1534 48.2957 76.331 48.7474 76.6861C49.2019 77.0384 49.5485 77.5497 49.7871 78.2202C50.0286 78.8878 50.1494 79.6932 50.1494 80.6364C50.1494 81.5852 50.03 82.3949 49.7914 83.0653C49.5528 83.733 49.2076 84.2429 48.7559 84.5952C48.3042 84.9446 47.7573 85.1193 47.1153 85.1193ZM47.1153 84.1818C47.7516 84.1818 48.2459 83.875 48.5982 83.2614C48.9505 82.6477 49.1266 81.7727 49.1266 80.6364C49.1266 79.8807 49.0457 79.2372 48.8837 78.706C48.7246 78.1747 48.4945 77.7699 48.1934 77.4915C47.8951 77.2131 47.5357 77.0739 47.1153 77.0739C46.4846 77.0739 45.9917 77.3849 45.6366 78.0071C45.2815 78.6264 45.1039 79.5028 45.1039 80.6364C45.1039 81.392 45.1834 82.0341 45.3425 82.5625C45.5016 83.0909 45.7303 83.4929 46.0286 83.7685C46.3298 84.044 46.692 84.1818 47.1153 84.1818ZM54.6153 85.1193C53.9732 85.1193 53.4263 84.9446 52.9746 84.5952C52.5229 84.2429 52.1778 83.733 51.9391 83.0653C51.7005 82.3949 51.5812 81.5852 51.5812 80.6364C51.5812 79.6932 51.7005 78.8878 51.9391 78.2202C52.1806 77.5497 52.5272 77.0384 52.9789 76.6861C53.4334 76.331 53.9789 76.1534 54.6153 76.1534C55.2516 76.1534 55.7957 76.331 56.2474 76.6861C56.7019 77.0384 57.0485 77.5497 57.2871 78.2202C57.5286 78.8878 57.6494 79.6932 57.6494 80.6364C57.6494 81.5852 57.53 82.3949 57.2914 83.0653C57.0528 83.733 56.7076 84.2429 56.2559 84.5952C55.8042 84.9446 55.2573 85.1193 54.6153 85.1193ZM54.6153 84.1818C55.2516 84.1818 55.7459 83.875 56.0982 83.2614C56.4505 82.6477 56.6266 81.7727 56.6266 80.6364C56.6266 79.8807 56.5457 79.2372 56.3837 78.706C56.2246 78.1747 55.9945 77.7699 55.6934 77.4915C55.3951 77.2131 55.0357 77.0739 54.6153 77.0739C53.9846 77.0739 53.4917 77.3849 53.1366 78.0071C52.7815 78.6264 52.6039 79.5028 52.6039 80.6364C52.6039 81.392 52.6834 82.0341 52.8425 82.5625C53.0016 83.0909 53.2303 83.4929 53.5286 83.7685C53.8298 84.044 54.192 84.1818 54.6153 84.1818Z" fill="black"/>
<path d="M63.7695 45H70.2545" stroke="black"/>
<path d="M38.0023 45L41.9057 37.2784V37.2102H37.4057V36.2727H42.9967V37.2614L39.1103 45H38.0023ZM47.1952 45.1193C46.6952 45.1193 46.2449 45.0199 45.8443 44.821C45.4437 44.6222 45.1227 44.3494 44.8812 44.0028C44.6398 43.6562 44.5077 43.2614 44.4849 42.8182H45.5077C45.5474 43.2131 45.7264 43.5398 46.0446 43.7983C46.3656 44.054 46.7491 44.1818 47.1952 44.1818C47.5531 44.1818 47.8713 44.098 48.1497 43.9304C48.431 43.7628 48.6511 43.5327 48.8102 43.2401C48.9722 42.9446 49.0531 42.6108 49.0531 42.2386C49.0531 41.858 48.9693 41.5185 48.8017 41.2202C48.6369 40.919 48.4097 40.6818 48.1199 40.5085C47.8301 40.3352 47.4991 40.2472 47.127 40.2443C46.8599 40.2415 46.5858 40.2827 46.3045 40.3679C46.0233 40.4503 45.7918 40.5568 45.6099 40.6875L44.6213 40.5682L45.1497 36.2727H49.6838V37.2102H46.0361L45.7293 39.7841H45.7804C45.9594 39.642 46.1838 39.5241 46.4537 39.4304C46.7236 39.3366 47.0048 39.2898 47.2974 39.2898C47.8315 39.2898 48.3074 39.4176 48.725 39.6733C49.1454 39.9261 49.475 40.2727 49.7136 40.7131C49.9551 41.1534 50.0758 41.6562 50.0758 42.2216C50.0758 42.7784 49.9508 43.2756 49.7008 43.7131C49.4537 44.1477 49.1128 44.4915 48.6781 44.7443C48.2435 44.9943 47.7491 45.1193 47.1952 45.1193ZM54.6153 45.1193C53.9732 45.1193 53.4263 44.9446 52.9746 44.5952C52.5229 44.2429 52.1778 43.733 51.9391 43.0653C51.7005 42.3949 51.5812 41.5852 51.5812 40.6364C51.5812 39.6932 51.7005 38.8878 51.9391 38.2202C52.1806 37.5497 52.5272 37.0384 52.9789 36.6861C53.4334 36.331 53.9789 36.1534 54.6153 36.1534C55.2516 36.1534 55.7957 36.331 56.2474 36.6861C56.7019 37.0384 57.0485 37.5497 57.2871 38.2202C57.5286 38.8878 57.6494 39.6932 57.6494 40.6364C57.6494 41.5852 57.53 42.3949 57.2914 43.0653C57.0528 43.733 56.7076 44.2429 56.2559 44.5952C55.8042 44.9446 55.2573 45.1193 54.6153 45.1193ZM54.6153 44.1818C55.2516 44.1818 55.7459 43.875 56.0982 43.2614C56.4505 42.6477 56.6266 41.7727 56.6266 40.6364C56.6266 39.8807 56.5457 39.2372 56.3837 38.706C56.2246 38.1747 55.9945 37.7699 55.6934 37.4915C55.3951 37.2131 55.0357 37.0739 54.6153 37.0739C53.9846 37.0739 53.4917 37.3849 53.1366 38.0071C52.7815 38.6264 52.6039 39.5028 52.6039 40.6364C52.6039 41.392 52.6834 42.0341 52.8425 42.5625C53.0016 43.0909 53.2303 43.4929 53.5286 43.7685C53.8298 44.044 54.192 44.1818 54.6153 44.1818Z" fill="black"/>
<path d="M63.7695 5H70.2545" stroke="black"/>
<path d="M34.2587 0.46804V9.19531H33.2019V1.57599H33.1508L31.0201 2.99077V1.9169L33.2019 0.46804H34.2587ZM39.6153 9.31463C38.9732 9.31463 38.4264 9.13991 37.9747 8.79048C37.5229 8.43821 37.1778 7.92827 36.9391 7.26065C36.7005 6.5902 36.5812 5.78054 36.5812 4.83168C36.5812 3.88849 36.7005 3.0831 36.9391 2.41548C37.1806 1.74503 37.5272 1.23366 37.9789 0.881392C38.4335 0.526278 38.9789 0.348721 39.6153 0.348721C40.2516 0.348721 40.7957 0.526278 41.2474 0.881392C41.7019 1.23366 42.0485 1.74503 42.2872 2.41548C42.5286 3.0831 42.6494 3.88849 42.6494 4.83168C42.6494 5.78054 42.53 6.5902 42.2914 7.26065C42.0528 7.92827 41.7076 8.43821 41.2559 8.79048C40.8042 9.13991 40.2573 9.31463 39.6153 9.31463ZM39.6153 8.37713C40.2516 8.37713 40.746 8.07031 41.0982 7.45668C41.4505 6.84304 41.6266 5.96804 41.6266 4.83168C41.6266 4.07599 41.5457 3.43253 41.3837 2.90128C41.2247 2.37003 40.9945 1.9652 40.6934 1.68679C40.3951 1.40838 40.0357 1.26918 39.6153 1.26918C38.9846 1.26918 38.4917 1.58026 38.1366 2.20241C37.7815 2.82173 37.6039 3.69815 37.6039 4.83168C37.6039 5.58736 37.6835 6.2294 37.8425 6.75781C38.0016 7.28622 38.2303 7.68821 38.5286 7.96378C38.8298 8.23935 39.192 8.37713 39.6153 8.37713ZM47.1153 9.31463C46.4732 9.31463 45.9264 9.13991 45.4747 8.79048C45.0229 8.43821 44.6778 7.92827 44.4391 7.26065C44.2005 6.5902 44.0812 5.78054 44.0812 4.83168C44.0812 3.88849 44.2005 3.0831 44.4391 2.41548C44.6806 1.74503 45.0272 1.23366 45.4789 0.881392C45.9335 0.526278 46.4789 0.348721 47.1153 0.348721C47.7516 0.348721 48.2957 0.526278 48.7474 0.881392C49.2019 1.23366 49.5485 1.74503 49.7872 2.41548C50.0286 3.0831 50.1494 3.88849 50.1494 4.83168C50.1494 5.78054 50.03 6.5902 49.7914 7.26065C49.5528 7.92827 49.2076 8.43821 48.7559 8.79048C48.3042 9.13991 47.7573 9.31463 47.1153 9.31463ZM47.1153 8.37713C47.7516 8.37713 48.246 8.07031 48.5982 7.45668C48.9505 6.84304 49.1266 5.96804 49.1266 4.83168C49.1266 4.07599 49.0457 3.43253 48.8837 2.90128C48.7247 2.37003 48.4945 1.9652 48.1934 1.68679C47.8951 1.40838 47.5357 1.26918 47.1153 1.26918C46.4846 1.26918 45.9917 1.58026 45.6366 2.20241C45.2815 2.82173 45.1039 3.69815 45.1039 4.83168C45.1039 5.58736 45.1835 6.2294 45.3425 6.75781C45.5016 7.28622 45.7303 7.68821 46.0286 7.96378C46.3298 8.23935 46.692 8.37713 47.1153 8.37713ZM54.6153 9.31463C53.9732 9.31463 53.4264 9.13991 52.9747 8.79048C52.5229 8.43821 52.1778 7.92827 51.9391 7.26065C51.7005 6.5902 51.5812 5.78054 51.5812 4.83168C51.5812 3.88849 51.7005 3.0831 51.9391 2.41548C52.1806 1.74503 52.5272 1.23366 52.9789 0.881392C53.4335 0.526278 53.9789 0.348721 54.6153 0.348721C55.2516 0.348721 55.7957 0.526278 56.2474 0.881392C56.7019 1.23366 57.0485 1.74503 57.2872 2.41548C57.5286 3.0831 57.6494 3.88849 57.6494 4.83168C57.6494 5.78054 57.53 6.5902 57.2914 7.26065C57.0528 7.92827 56.7076 8.43821 56.2559 8.79048C55.8042 9.13991 55.2573 9.31463 54.6153 9.31463ZM54.6153 8.37713C55.2516 8.37713 55.746 8.07031 56.0982 7.45668C56.4505 6.84304 56.6266 5.96804 56.6266 4.83168C56.6266 4.07599 56.5457 3.43253 56.3837 2.90128C56.2247 2.37003 55.9945 1.9652 55.6934 1.68679C55.3951 1.40838 55.0357 1.26918 54.6153 1.26918C53.9846 1.26918 53.4917 1.58026 53.1366 2.20241C52.7815 2.82173 52.6039 3.69815 52.6039 4.83168C52.6039 5.58736 52.6835 6.2294 52.8425 6.75781C53.0016 7.28622 53.2303 7.68821 53.5286 7.96378C53.8298 8.23935 54.192 8.37713 54.6153 8.37713Z" fill="black"/>
<path d="M67.012 148H713.353" stroke="#CCCCCC"/>
<path d="M67.012 108H713.353" stroke="#CCCCCC"/>
<path d="M67.012 68H713.353" stroke="#CCCCCC"/>
<path d="M67.012 28H713.353" stroke="#CCCCCC"/>
<path d="M67.012 -12V148" stroke="#CCCCCC"/>
<path d="M138.828 -12V148" stroke="#CCCCCC"/>
<path d="M210.643 -12V148" stroke="#CCCCCC"/>
<path d="M282.459 -12V148" stroke="#CCCCCC"/>
<path d="M354.275 -12V148" stroke="#CCCCCC"/>
<path d="M426.09 -12V148" stroke="#CCCCCC"/>
<path d="M497.906 -12V148" stroke="#CCCCCC"/>
<path d="M569.722 -12V148" stroke="#CCCCCC"/>
<path d="M641.538 -12V148" stroke="#CCCCCC"/>
<path d="M713.353 -12V148" stroke="#CCCCCC"/>
<path d="M70.2545 80.0401L142.07 35.0801L213.886 86.2801L285.702 36.6801L357.517 101.48L429.333 100.84L501.149 95.0801L572.964 102.28L644.78 91.0801L716.596 151.08" stroke="#495C67"/>
<path d="M70.2545 83.04C72.0453 83.04 73.497 81.6969 73.497 80.04C73.497 78.3832 72.0453 77.04 70.2545 77.04C68.4637 77.04 67.012 78.3832 67.012 80.04C67.012 81.6969 68.4637 83.04 70.2545 83.04Z" fill="white" stroke="#495C67"/>
<path d="M142.07 38.0801C143.861 38.0801 145.313 36.7369 145.313 35.0801C145.313 33.4232 143.861 32.0801 142.07 32.0801C140.279 32.0801 138.828 33.4232 138.828 35.0801C138.828 36.7369 140.279 38.0801 142.07 38.0801Z" fill="white" stroke="#495C67"/>
<path d="M213.886 89.28C215.677 89.28 217.128 87.9369 217.128 86.28C217.128 84.6232 215.677 83.28 213.886 83.28C212.095 83.28 210.643 84.6232 210.643 86.28C210.643 87.9369 212.095 89.28 213.886 89.28Z" fill="white" stroke="#495C67"/>
<path d="M285.702 39.6802C287.492 39.6802 288.944 38.337 288.944 36.6802C288.944 35.0233 287.492 33.6802 285.702 33.6802C283.911 33.6802 282.459 35.0233 282.459 36.6802C282.459 38.337 283.911 39.6802 285.702 39.6802Z" fill="white" stroke="#495C67"/>
<path d="M357.517 104.48C359.308 104.48 360.76 103.137 360.76 101.48C360.76 99.8231 359.308 98.48 357.517 98.48C355.727 98.48 354.275 99.8231 354.275 101.48C354.275 103.137 355.727 104.48 357.517 104.48Z" fill="white" stroke="#495C67"/>
<path d="M429.333 103.84C431.124 103.84 432.575 102.497 432.575 100.84C432.575 99.1832 431.124 97.8401 429.333 97.8401C427.542 97.8401 426.09 99.1832 426.09 100.84C426.09 102.497 427.542 103.84 429.333 103.84Z" fill="white" stroke="#495C67"/>
<path d="M501.149 98.0801C502.939 98.0801 504.391 96.7369 504.391 95.0801C504.391 93.4232 502.939 92.0801 501.149 92.0801C499.358 92.0801 497.906 93.4232 497.906 95.0801C497.906 96.7369 499.358 98.0801 501.149 98.0801Z" fill="white" stroke="#495C67"/>
<path d="M572.964 105.28C574.755 105.28 576.207 103.937 576.207 102.28C576.207 100.623 574.755 99.28 572.964 99.28C571.174 99.28 569.722 100.623 569.722 102.28C569.722 103.937 571.174 105.28 572.964 105.28Z" fill="white" stroke="#495C67"/>
<path d="M644.78 94.0801C646.571 94.0801 648.023 92.7369 648.023 91.0801C648.023 89.4232 646.571 88.0801 644.78 88.0801C642.989 88.0801 641.538 89.4232 641.538 91.0801C641.538 92.7369 642.989 94.0801 644.78 94.0801Z" fill="white" stroke="#495C67"/>
<path d="M716.596 154.08C718.387 154.08 719.838 152.737 719.838 151.08C719.838 149.423 718.387 148.08 716.596 148.08C714.805 148.08 713.353 149.423 713.353 151.08C713.353 152.737 714.805 154.08 716.596 154.08Z" fill="white" stroke="#495C67"/>
</g>
<defs>
<clipPath id="clip0_236_365">
<rect width="722" height="200" fill="white"/>
</clipPath>
</defs>
</svg>
