<svg width="80" height="80" viewBox="0 0 80 80" fill="none" xmlns="http://www.w3.org/2000/svg">
<g opacity="0.3">
<path d="M80 40C80 62.0914 62.0914 80 40 80C17.9086 80 0 62.0914 0 40C0 17.9086 17.9086 0 40 0C62.0914 0 80 17.9086 80 40Z" fill="#D0D0D0"/>
<path d="M46.1528 48.4207H52.2796L42.9208 38.4241L37.4038 44.3173C37.0896 44.6528 36.6634 44.8414 36.2191 44.8414C35.7747 44.8414 35.3485 44.6528 35.0343 44.3173L24.4907 33.0551C23.8364 32.3562 23.8364 31.2231 24.4907 30.5242C25.145 29.8253 26.2059 29.8253 26.8602 30.5242L36.219 40.5207L41.7361 34.6277C42.0504 34.2921 42.4765 34.1035 42.9208 34.1035C43.3652 34.1035 43.7914 34.2921 44.1055 34.6277L54.6491 45.8898V39.3453C54.6491 39.2835 54.6521 39.2225 54.6578 39.1624C54.7436 38.2599 55.4571 37.5556 56.3245 37.5556C57.2499 37.5556 58 38.3569 58 39.3453V50.2104C58 51.1986 57.2499 52 56.3245 52H46.1528C46.0948 52 46.0377 51.9968 45.9814 51.9907C45.1366 51.8991 44.4773 51.1369 44.4773 50.2104C44.4773 49.2219 45.2274 48.4207 46.1528 48.4207Z" fill="black"/>
</g>
</svg>
