<svg width="24" height="24" viewBox="0 0 24 24" fill="none" xmlns="http://www.w3.org/2000/svg">
<path d="M17.3468 15.0065H16.2935L15.9202 14.6465C17.2268 13.1265 18.0135 11.1532 18.0135 9.00651C18.0135 4.21984 14.1335 0.339844 9.34684 0.339844C4.56018 0.339844 0.680176 4.21984 0.680176 9.00651C0.680176 13.7932 4.56018 17.6732 9.34684 17.6732C11.4935 17.6732 13.4668 16.8865 14.9868 15.5798L15.3468 15.9532V17.0065L22.0135 23.6598L24.0002 21.6732L17.3468 15.0065ZM9.34684 15.0065C6.02684 15.0065 3.34684 12.3265 3.34684 9.00651C3.34684 5.68651 6.02684 3.00651 9.34684 3.00651C12.6668 3.00651 15.3468 5.68651 15.3468 9.00651C15.3468 12.3265 12.6668 15.0065 9.34684 15.0065Z" fill="black" fill-opacity="0.6"/>
</svg>
